<?xml version="1.0" encoding="UTF-8" standalone="no"?>
<!DOCTYPE svg PUBLIC "-//W3C//DTD SVG 1.1//EN"
 "http://www.w3.org/Graphics/SVG/1.1/DTD/svg11.dtd">
<!-- Generated by graphviz version 2.38.0 (20140413.2041)
 -->
<!-- Title: models_diagram Pages: 1 -->
<svg width="484pt" height="574pt"
 viewBox="0.00 0.00 484.00 574.00" xmlns="http://www.w3.org/2000/svg" xmlns:xlink="http://www.w3.org/1999/xlink">
<g id="graph0" class="graph" transform="scale(1 1) rotate(0) translate(4 570)">
<title>models_diagram</title>
<polygon fill="none" stroke="none" points="-4,4 -4,-570 480,-570 480,4 -4,4"/>
<!-- _diagram_info -->
<g id="node1" class="node"><title>_diagram_info</title>
<text text-anchor="start" x="8" y="-537.1" font-family="Times,serif" font-size="13.00">Models diagram</text>
<text text-anchor="start" x="8" y="-523.1" font-family="Times,serif" font-size="13.00">Date: Jul 18 2016 &#45; 22:17</text>
<text text-anchor="start" x="8" y="-509.1" font-family="Times,serif" font-size="13.00">Migration version: 20160719025322</text>
<text text-anchor="start" x="8" y="-495.1" font-family="Times,serif" font-size="13.00">Generated by RailRoady 1.5.1</text>
<text text-anchor="start" x="8" y="-481.1" font-family="Times,serif" font-size="13.00">http://railroady.prestonlee.com</text>
</g>
<!-- Worker -->
<g id="node2" class="node"><title>Worker</title>
<path fill="none" stroke="black" d="M244,-459.5C244,-459.5 464,-459.5 464,-459.5 470,-459.5 476,-465.5 476,-471.5 476,-471.5 476,-553.5 476,-553.5 476,-559.5 470,-565.5 464,-565.5 464,-565.5 244,-565.5 244,-565.5 238,-565.5 232,-559.5 232,-553.5 232,-553.5 232,-471.5 232,-471.5 232,-465.5 238,-459.5 244,-459.5"/>
<text text-anchor="middle" x="354" y="-550.3" font-family="Times,serif" font-size="14.00">Worker</text>
<polyline fill="none" stroke="black" points="232,-542.5 476,-542.5 "/>
<text text-anchor="start" x="240" y="-527.3" font-family="Times,serif" font-size="14.00">id :integer</text>
<text text-anchor="start" x="240" y="-512.3" font-family="Times,serif" font-size="14.00">name :character varying</text>
<text text-anchor="start" x="240" y="-497.3" font-family="Times,serif" font-size="14.00">email :character varying</text>
<text text-anchor="start" x="240" y="-482.3" font-family="Times,serif" font-size="14.00">created_at :timestamp without time zone</text>
<text text-anchor="start" x="240" y="-467.3" font-family="Times,serif" font-size="14.00">updated_at :timestamp without time zone</text>
</g>
<!-- Operation -->
<g id="node3" class="node"><title>Operation</title>
<path fill="none" stroke="black" d="M244,-301.5C244,-301.5 464,-301.5 464,-301.5 470,-301.5 476,-307.5 476,-313.5 476,-313.5 476,-410.5 476,-410.5 476,-416.5 470,-422.5 464,-422.5 464,-422.5 244,-422.5 244,-422.5 238,-422.5 232,-416.5 232,-410.5 232,-410.5 232,-313.5 232,-313.5 232,-307.5 238,-301.5 244,-301.5"/>
<text text-anchor="middle" x="354" y="-407.3" font-family="Times,serif" font-size="14.00">Operation</text>
<polyline fill="none" stroke="black" points="232,-399.5 476,-399.5 "/>
<text text-anchor="start" x="240" y="-384.3" font-family="Times,serif" font-size="14.00">id :integer</text>
<text text-anchor="start" x="240" y="-369.3" font-family="Times,serif" font-size="14.00">job :character varying</text>
<text text-anchor="start" x="240" y="-354.3" font-family="Times,serif" font-size="14.00">worker_id :integer</text>
<text text-anchor="start" x="240" y="-339.3" font-family="Times,serif" font-size="14.00">created_at :timestamp without time zone</text>
<text text-anchor="start" x="240" y="-324.3" font-family="Times,serif" font-size="14.00">updated_at :timestamp without time zone</text>
<text text-anchor="start" x="240" y="-309.3" font-family="Times,serif" font-size="14.00">inventory_id :integer</text>
</g>
<!-- Worker&#45;&gt;Operation -->
<g id="edge1" class="edge"><title>Worker&#45;&gt;Operation</title>
<path fill="none" stroke="#9ed358" d="M354,-451.033C354,-445.052 354,-438.948 354,-432.882"/>
<ellipse fill="none" stroke="#9ed358" cx="354" cy="-455.144" rx="4" ry="4"/>
<polygon fill="#9ed358" stroke="#9ed358" points="354,-432.74 358.5,-422.739 354,-427.74 354,-422.74 354,-422.74 354,-422.74 354,-427.74 349.5,-422.74 354,-432.74 354,-432.74"/>
</g>
<!-- Inventory -->
<g id="node4" class="node"><title>Inventory</title>
<path fill="none" stroke="black" d="M169,-128.5C169,-128.5 389,-128.5 389,-128.5 395,-128.5 401,-134.5 401,-140.5 401,-140.5 401,-252.5 401,-252.5 401,-258.5 395,-264.5 389,-264.5 389,-264.5 169,-264.5 169,-264.5 163,-264.5 157,-258.5 157,-252.5 157,-252.5 157,-140.5 157,-140.5 157,-134.5 163,-128.5 169,-128.5"/>
<text text-anchor="middle" x="279" y="-249.3" font-family="Times,serif" font-size="14.00">Inventory</text>
<polyline fill="none" stroke="black" points="157,-241.5 401,-241.5 "/>
<text text-anchor="start" x="165" y="-226.3" font-family="Times,serif" font-size="14.00">id :integer</text>
<text text-anchor="start" x="165" y="-211.3" font-family="Times,serif" font-size="14.00">item_type :character varying</text>
<text text-anchor="start" x="165" y="-196.3" font-family="Times,serif" font-size="14.00">size :integer</text>
<text text-anchor="start" x="165" y="-181.3" font-family="Times,serif" font-size="14.00">description :text</text>
<text text-anchor="start" x="165" y="-166.3" font-family="Times,serif" font-size="14.00">created_at :timestamp without time zone</text>
<text text-anchor="start" x="165" y="-151.3" font-family="Times,serif" font-size="14.00">updated_at :timestamp without time zone</text>
<text text-anchor="start" x="165" y="-136.3" font-family="Times,serif" font-size="14.00">series :integer</text>
</g>
<!-- Operation&#45;&gt;Inventory -->
<g id="edge2" class="edge"><title>Operation&#45;&gt;Inventory</title>
<path fill="none" stroke="#587adb" d="M323.154,-293.755C319.913,-286.691 316.605,-279.478 313.329,-272.336"/>
<ellipse fill="none" stroke="#587adb" cx="324.831" cy="-297.411" rx="4.00002" ry="4.00002"/>
<ellipse fill="#587adb" stroke="#587adb" cx="311.459" cy="-268.26" rx="4.00002" ry="4.00002"/>
</g>
<!-- Registration -->
<g id="node5" class="node"><title>Registration</title>
<path fill="none" stroke="black" d="M244,-0.5C244,-0.5 464,-0.5 464,-0.5 470,-0.5 476,-6.5 476,-12.5 476,-12.5 476,-79.5 476,-79.5 476,-85.5 470,-91.5 464,-91.5 464,-91.5 244,-91.5 244,-91.5 238,-91.5 232,-85.5 232,-79.5 232,-79.5 232,-12.5 232,-12.5 232,-6.5 238,-0.5 244,-0.5"/>
<text text-anchor="middle" x="354" y="-76.3" font-family="Times,serif" font-size="14.00">Registration</text>
<polyline fill="none" stroke="black" points="232,-68.5 476,-68.5 "/>
<text text-anchor="start" x="240" y="-53.3" font-family="Times,serif" font-size="14.00">id :integer</text>
<text text-anchor="start" x="240" y="-38.3" font-family="Times,serif" font-size="14.00">description :text</text>
<text text-anchor="start" x="240" y="-23.3" font-family="Times,serif" font-size="14.00">created_at :timestamp without time zone</text>
<text text-anchor="start" x="240" y="-8.3" font-family="Times,serif" font-size="14.00">updated_at :timestamp without time zone</text>
</g>
<!-- Operation&#45;&gt;Registration -->
<g id="edge3" class="edge"><title>Operation&#45;&gt;Registration</title>
<path fill="none" stroke="#1c9a2e" d="M398.761,-294.259C403.368,-284.768 407.332,-274.871 410,-265 425.891,-206.221 428.136,-186.125 410,-128 406.835,-117.856 401.905,-107.863 396.255,-98.5454"/>
<ellipse fill="none" stroke="#1c9a2e" cx="396.932" cy="-297.863" rx="4.00002" ry="4.00002"/>
<ellipse fill="#1c9a2e" stroke="#1c9a2e" cx="393.958" cy="-94.9355" rx="4.00002" ry="4.00002"/>
</g>
<!-- Inventory&#45;&gt;Registration -->
<g id="edge4" class="edge"><title>Inventory&#45;&gt;Registration</title>
<path fill="none" stroke="#60e470" d="M316.678,-120.898C320.403,-113.523 324.125,-106.152 327.698,-99.077"/>
<ellipse fill="none" stroke="#60e470" cx="314.792" cy="-124.631" rx="4.00002" ry="4.00002"/>
<ellipse fill="#60e470" stroke="#60e470" cx="329.707" cy="-95.1002" rx="4.00002" ry="4.00002"/>
</g>
</g>
</svg>
