<?xml version="1.0" encoding="UTF-8" standalone="no"?>
<!DOCTYPE svg PUBLIC "-//W3C//DTD SVG 1.1//EN"
 "http://www.w3.org/Graphics/SVG/1.1/DTD/svg11.dtd">
<!-- Generated by graphviz version 2.38.0 (20140413.2041)
 -->
<!-- Title: models_diagram Pages: 1 -->
<svg width="746pt" height="288pt"
 viewBox="0.00 0.00 746.00 288.00" xmlns="http://www.w3.org/2000/svg" xmlns:xlink="http://www.w3.org/1999/xlink">
<g id="graph0" class="graph" transform="scale(1 1) rotate(0) translate(4 284)">
<title>models_diagram</title>
<polygon fill="none" stroke="none" points="-4,4 -4,-284 742,-284 742,4 -4,4"/>
<!-- _diagram_info -->
<g id="node1" class="node"><title>_diagram_info</title>
<text text-anchor="start" x="8" y="-236.1" font-family="Times,serif" font-size="13.00">Models diagram</text>
<text text-anchor="start" x="8" y="-222.1" font-family="Times,serif" font-size="13.00">Date: Jul 18 2016 &#45; 20:22</text>
<text text-anchor="start" x="8" y="-208.1" font-family="Times,serif" font-size="13.00">Migration version: 20160719010313</text>
<text text-anchor="start" x="8" y="-194.1" font-family="Times,serif" font-size="13.00">Generated by RailRoady 1.5.1</text>
<text text-anchor="start" x="8" y="-180.1" font-family="Times,serif" font-size="13.00">http://railroady.prestonlee.com</text>
</g>
<!-- Worker -->
<g id="node2" class="node"><title>Worker</title>
<path fill="none" stroke="black" d="M244,-158.5C244,-158.5 464,-158.5 464,-158.5 470,-158.5 476,-164.5 476,-170.5 476,-170.5 476,-252.5 476,-252.5 476,-258.5 470,-264.5 464,-264.5 464,-264.5 244,-264.5 244,-264.5 238,-264.5 232,-258.5 232,-252.5 232,-252.5 232,-170.5 232,-170.5 232,-164.5 238,-158.5 244,-158.5"/>
<text text-anchor="middle" x="354" y="-249.3" font-family="Times,serif" font-size="14.00">Worker</text>
<polyline fill="none" stroke="black" points="232,-241.5 476,-241.5 "/>
<text text-anchor="start" x="240" y="-226.3" font-family="Times,serif" font-size="14.00">id :integer</text>
<text text-anchor="start" x="240" y="-211.3" font-family="Times,serif" font-size="14.00">name :character varying</text>
<text text-anchor="start" x="240" y="-196.3" font-family="Times,serif" font-size="14.00">email :character varying</text>
<text text-anchor="start" x="240" y="-181.3" font-family="Times,serif" font-size="14.00">created_at :timestamp without time zone</text>
<text text-anchor="start" x="240" y="-166.3" font-family="Times,serif" font-size="14.00">updated_at :timestamp without time zone</text>
</g>
<!-- Operation -->
<g id="node3" class="node"><title>Operation</title>
<path fill="none" stroke="black" d="M244,-0.5C244,-0.5 464,-0.5 464,-0.5 470,-0.5 476,-6.5 476,-12.5 476,-12.5 476,-94.5 476,-94.5 476,-100.5 470,-106.5 464,-106.5 464,-106.5 244,-106.5 244,-106.5 238,-106.5 232,-100.5 232,-94.5 232,-94.5 232,-12.5 232,-12.5 232,-6.5 238,-0.5 244,-0.5"/>
<text text-anchor="middle" x="354" y="-91.3" font-family="Times,serif" font-size="14.00">Operation</text>
<polyline fill="none" stroke="black" points="232,-83.5 476,-83.5 "/>
<text text-anchor="start" x="240" y="-68.3" font-family="Times,serif" font-size="14.00">id :integer</text>
<text text-anchor="start" x="240" y="-53.3" font-family="Times,serif" font-size="14.00">job :character varying</text>
<text text-anchor="start" x="240" y="-38.3" font-family="Times,serif" font-size="14.00">worker_id :integer</text>
<text text-anchor="start" x="240" y="-23.3" font-family="Times,serif" font-size="14.00">created_at :timestamp without time zone</text>
<text text-anchor="start" x="240" y="-8.3" font-family="Times,serif" font-size="14.00">updated_at :timestamp without time zone</text>
</g>
<!-- Worker&#45;&gt;Operation -->
<g id="edge1" class="edge"><title>Worker&#45;&gt;Operation</title>
<path fill="none" stroke="#915736" d="M354,-149.849C354,-139.063 354,-127.81 354,-116.974"/>
<ellipse fill="none" stroke="#915736" cx="354" cy="-154.12" rx="4" ry="4"/>
<polygon fill="#915736" stroke="#915736" points="354,-116.741 358.5,-106.741 354,-111.741 354,-106.741 354,-106.741 354,-106.741 354,-111.741 349.5,-106.742 354,-116.741 354,-116.741"/>
</g>
<!-- Inventory -->
<g id="node4" class="node"><title>Inventory</title>
<path fill="none" stroke="black" d="M506,-143.5C506,-143.5 726,-143.5 726,-143.5 732,-143.5 738,-149.5 738,-155.5 738,-155.5 738,-267.5 738,-267.5 738,-273.5 732,-279.5 726,-279.5 726,-279.5 506,-279.5 506,-279.5 500,-279.5 494,-273.5 494,-267.5 494,-267.5 494,-155.5 494,-155.5 494,-149.5 500,-143.5 506,-143.5"/>
<text text-anchor="middle" x="616" y="-264.3" font-family="Times,serif" font-size="14.00">Inventory</text>
<polyline fill="none" stroke="black" points="494,-256.5 738,-256.5 "/>
<text text-anchor="start" x="502" y="-241.3" font-family="Times,serif" font-size="14.00">id :integer</text>
<text text-anchor="start" x="502" y="-226.3" font-family="Times,serif" font-size="14.00">item_type :character varying</text>
<text text-anchor="start" x="502" y="-211.3" font-family="Times,serif" font-size="14.00">size :integer</text>
<text text-anchor="start" x="502" y="-196.3" font-family="Times,serif" font-size="14.00">description :text</text>
<text text-anchor="start" x="502" y="-181.3" font-family="Times,serif" font-size="14.00">created_at :timestamp without time zone</text>
<text text-anchor="start" x="502" y="-166.3" font-family="Times,serif" font-size="14.00">updated_at :timestamp without time zone</text>
<text text-anchor="start" x="502" y="-151.3" font-family="Times,serif" font-size="14.00">series :integer</text>
</g>
</g>
</svg>
