<?xml version="1.0" encoding="UTF-8" standalone="no"?>
<!DOCTYPE svg PUBLIC "-//W3C//DTD SVG 1.1//EN"
 "http://www.w3.org/Graphics/SVG/1.1/DTD/svg11.dtd">
<!-- Generated by graphviz version 2.38.0 (20140413.2041)
 -->
<!-- Title: models_diagram Pages: 1 -->
<svg width="332pt" height="302pt"
 viewBox="0.00 0.00 331.95 302.00" xmlns="http://www.w3.org/2000/svg" xmlns:xlink="http://www.w3.org/1999/xlink">
<g id="graph0" class="graph" transform="scale(1 1) rotate(0) translate(4 298)">
<title>models_diagram</title>
<polygon fill="none" stroke="none" points="-4,4 -4,-298 327.945,-298 327.945,4 -4,4"/>
<!-- _diagram_info -->
<g id="node1" class="node"><title>_diagram_info</title>
<text text-anchor="start" x="8" y="-279.6" font-family="Times,serif" font-size="13.00">Models diagram</text>
<text text-anchor="start" x="8" y="-265.6" font-family="Times,serif" font-size="13.00">Date: Jul 18 2016 &#45; 22:17</text>
<text text-anchor="start" x="8" y="-251.6" font-family="Times,serif" font-size="13.00">Migration version: 20160719025322</text>
<text text-anchor="start" x="8" y="-237.6" font-family="Times,serif" font-size="13.00">Generated by RailRoady 1.5.1</text>
<text text-anchor="start" x="8" y="-223.6" font-family="Times,serif" font-size="13.00">http://railroady.prestonlee.com</text>
</g>
<!-- Worker -->
<g id="node2" class="node"><title>Worker</title>
<ellipse fill="none" stroke="black" cx="270" cy="-255" rx="38.1938" ry="18"/>
<text text-anchor="middle" x="270" y="-251.3" font-family="Times,serif" font-size="14.00">Worker</text>
</g>
<!-- Operation -->
<g id="node3" class="node"><title>Operation</title>
<ellipse fill="none" stroke="black" cx="270" cy="-162" rx="46.2923" ry="18"/>
<text text-anchor="middle" x="270" y="-158.3" font-family="Times,serif" font-size="14.00">Operation</text>
</g>
<!-- Worker&#45;&gt;Operation -->
<g id="edge1" class="edge"><title>Worker&#45;&gt;Operation</title>
<path fill="none" stroke="#05760a" d="M270,-228.729C270,-216.725 270,-202.362 270,-190.129"/>
<ellipse fill="none" stroke="#05760a" cx="270" cy="-232.884" rx="4" ry="4"/>
<polygon fill="#05760a" stroke="#05760a" points="270,-190.04 274.5,-180.04 270,-185.04 270,-180.04 270,-180.04 270,-180.04 270,-185.04 265.5,-180.04 270,-190.04 270,-190.04"/>
</g>
<!-- Inventory -->
<g id="node4" class="node"><title>Inventory</title>
<ellipse fill="none" stroke="black" cx="234" cy="-90" rx="44.6926" ry="18"/>
<text text-anchor="middle" x="234" y="-86.3" font-family="Times,serif" font-size="14.00">Inventory</text>
</g>
<!-- Operation&#45;&gt;Inventory -->
<g id="edge2" class="edge"><title>Operation&#45;&gt;Inventory</title>
<path fill="none" stroke="#a87158" d="M257.51,-136.714C253.905,-129.705 249.974,-122.061 246.376,-115.065"/>
<ellipse fill="none" stroke="#a87158" cx="259.456" cy="-140.498" rx="4.00002" ry="4.00002"/>
<ellipse fill="#a87158" stroke="#a87158" cx="244.464" cy="-111.346" rx="4.00002" ry="4.00002"/>
</g>
<!-- Registration -->
<g id="node5" class="node"><title>Registration</title>
<ellipse fill="none" stroke="black" cx="270" cy="-18" rx="53.8905" ry="18"/>
<text text-anchor="middle" x="270" y="-14.3" font-family="Times,serif" font-size="14.00">Registration</text>
</g>
<!-- Operation&#45;&gt;Registration -->
<g id="edge3" class="edge"><title>Operation&#45;&gt;Registration</title>
<path fill="none" stroke="#818e45" d="M280.187,-136.5C283.352,-127.677 286.424,-117.543 288,-108 290.608,-92.2139 290.608,-87.7861 288,-72 286.448,-62.6041 283.446,-52.635 280.333,-43.9085"/>
<ellipse fill="none" stroke="#818e45" cx="278.703" cy="-140.436" rx="4.00001" ry="4.00001"/>
<ellipse fill="#818e45" stroke="#818e45" cx="278.883" cy="-40.0415" rx="4.00001" ry="4.00001"/>
</g>
<!-- Inventory&#45;&gt;Registration -->
<g id="edge4" class="edge"><title>Inventory&#45;&gt;Registration</title>
<path fill="none" stroke="#ccdc95" d="M246.49,-64.7144C250.095,-57.7051 254.026,-50.0612 257.624,-43.0653"/>
<ellipse fill="none" stroke="#ccdc95" cx="244.544" cy="-68.4978" rx="4.00002" ry="4.00002"/>
<ellipse fill="#ccdc95" stroke="#ccdc95" cx="259.536" cy="-39.3462" rx="4.00002" ry="4.00002"/>
</g>
</g>
</svg>
